<svg xmlns="http://www.w3.org/2000/svg" viewBox="0 0 190 100">
  <rect width="190" height="100" fill="#fff"/>
  <g fill="#B22234">
    <rect y="0" width="190" height="7.69"/>
    <rect y="15.38" width="190" height="7.69"/>
    <rect y="30.76" width="190" height="7.69"/>
    <rect y="46.14" width="190" height="7.69"/>
    <rect y="61.52" width="190" height="7.69"/>
    <rect y="76.90" width="190" height="7.69"/>
    <rect y="92.28" width="190" height="7.72"/>
  </g>
  <rect width="76" height="53.85" fill="#3C3B6E"/>
  <g fill="#ffffff" opacity="0.95">
    <circle cx="12" cy="10" r="2.4"/><circle cx="24" cy="10" r="2.4"/><circle cx="36" cy="10" r="2.4"/><circle cx="48" cy="10" r="2.4"/><circle cx="60" cy="10" r="2.4"/>
    <circle cx="18" cy="20" r="2.4"/><circle cx="30" cy="20" r="2.4"/><circle cx="42" cy="20" r="2.4"/><circle cx="54" cy="20" r="2.4"/>
    <circle cx="12" cy="30" r="2.4"/><circle cx="24" cy="30" r="2.4"/><circle cx="36" cy="30" r="2.4"/><circle cx="48" cy="30" r="2.4"/><circle cx="60" cy="30" r="2.4"/>
  </g>
</svg>
